<svg xmlns="http://www.w3.org/2000/svg" xmlns:xlink="http://www.w3.org/1999/xlink" xmlns:svgjs="http://svgjs.com/svgjs" width="100" height="100" viewbox="0 0 100 100">
   <g>
      <polygon
         points="76.565781,48.479736 88.095009,41.823364 88.095009,28.49609 76.564667,21.8386 65.037529,28.49609 76.565781,35.152462 "/>
      <polygon
         points="34.962612,41.824482 34.962612,28.49609 23.431984,21.840834 11.904987,28.49609 23.433241,35.15358 23.433241,48.481972 "/>
      <polygon
         points="61.527763,26.484764 61.527763,13.156373 49.998394,6.5 38.470142,13.156373 49.999512,19.813864 49.999512,33.141136 "/>
      <polygon
         points="61.527763,57.230125 61.527763,43.902851 49.998394,37.246479 38.470142,43.902851 49.999512,50.560341 49.999512,63.887615 "/>
      <polygon
         points="61.527763,87.876038 61.527763,74.54876 49.998394,67.891273 38.470142,74.54876 49.999512,81.205139 49.999512,94.53241 "/>
      <polygon
         points="88.095009,72.535202 88.095009,59.209045 76.564667,52.551556 65.037529,59.209045 76.565781,65.866539 76.565781,79.192688 "/>
      <polygon
         points="34.962612,72.536316 34.962612,59.209045 23.431984,52.552673 11.904987,59.209045 23.433241,65.866539 23.433241,79.19381 "/>
   </g>
</svg>
